#!OML:ASF E:\VariousWalksJay\Project 1\Capture day 1\Session 1\Actor2.ASF
:FULLY-SPECIFIED
:DEGREES
1112
root -7.06754 16.8782 40.4508 4.42074 -22.7534 -5.25008
lowerback -4.02387 0.546666 4.70549
upperback -0.239717 0.526256 -0.603789
thorax 2.05907 0.308004 -3.23371
lowerneck -10.6789 -3.75939 -2.84821
upperneck 7.95054 -5.70185 9.896
head 4.50983 -2.33993 3.11066
rclavicle -8.61607e-015 -1.51076e-014
rhumerus -37.8789 54.149 -81.6064
rradius 61.6855
rwrist -6.11492
rhand 26.4205 -10.4106
rfingers 7.12502
rthumb 50.462 -31.3874
lclavicle -8.61607e-015 -1.51076e-014
lhumerus -211.442 -131.203 253.025
lradius 46.9649
lwrist 3.58492
lhand 26.4245 0.815618
lfingers 7.12502
lthumb 50.4657 21.7904
rfemur -11.014 -8.54986 25.7553
rtibia 32.4746
rfoot -22.2179 -1.2625
rtoes 6.09382
lfemur -6.841 3.16838 -15.4118
ltibia 27.2773
lfoot -22.4306 7.32811
ltoes -1.4033
1113
root -7.06291 16.88 40.4491 4.46071 -22.6997 -5.19445
lowerback -3.92723 0.546379 4.6258
upperback -0.167053 0.532505 -0.580043
thorax 2.07939 0.312192 -3.1642
lowerneck -10.8337 -3.83986 -2.91561
upperneck 8.10712 -5.81436 9.90365
head 4.59317 -2.38767 3.11277
rclavicle -6.05299e-014 7.95139e-015
rhumerus -39.0625 53.1373 -84.1479
rradius 59.719
rwrist -3.07598
rhand 25.5737 -9.95165
rfingers 7.12502
rthumb 49.6874 -31.337
lclavicle -6.05299e-014 7.95139e-015
lhumerus -212.045 -132.5 255.007
lradius 44.3817
lwrist 2.6154
lhand 25.0681 0.434471
lfingers 7.12502
lthumb 49.2237 22.0555
rfemur -11.1063 -8.48878 25.7143
rtibia 32.5016
rfoot -22.2228 -1.39042
rtoes 6.04338
lfemur -6.914 3.14599 -15.4835
ltibia 27.2405
lfoot -22.3844 7.3154
ltoes -1.42997
1114
root -7.05835 16.8816 40.4483 4.50222 -22.6396 -5.14541
lowerback -3.83923 0.533535 4.5505
upperback -0.0944804 0.521141 -0.551068
thorax 2.10285 0.307597 -3.09274
lowerneck -10.9927 -3.91494 -2.97574
upperneck 8.29785 -5.92224 9.90035
head 4.68696 -2.43244 3.11034
rclavicle 4.64659e-015 -1.35174e-014
rhumerus -39.9786 52.0455 -86.3475
rradius 57.8264
rwrist -0.6148
rhand 24.6836 -9.57845
rfingers 7.12502
rthumb 48.8705 -31.3746
lclavicle 4.64659e-015 -1.35174e-014
lhumerus -212.485 -134.001 256.719
lradius 41.8443
lwrist 1.90734
lhand 23.596 0.114256
lfingers 7.12502
lthumb 47.8691 22.3879
rfemur -11.193 -8.4425 25.677
rtibia 32.5253
rfoot -22.2269 -1.50711
rtoes 5.98477
lfemur -6.98544 3.1273 -15.5472
ltibia 27.207
lfoot -22.3402 7.2911
ltoes -1.45599
1115
root -7.05388 16.8832 40.4481 4.548 -22.572 -5.11038
lowerback -3.76061 0.506486 4.49097
upperback -0.0224859 0.489501 -0.518619
thorax 2.12937 0.293008 -3.02769
lowerneck -11.1364 -3.98108 -3.03169
upperneck 8.50743 -6.01995 9.894
head 4.78325 -2.4722 3.10712
rclavicle 1.76049e-014 -4.77083e-015
rhumerus -40.6538 50.9118 -88.2397
rradius 56.0028
rwrist 1.20995
rhand 23.7356 -9.31463
rfingers 7.12502
rthumb 47.9979 -31.5284
lclavicle 1.76049e-014 -4.77083e-015
lhumerus -212.782 -135.728 258.157
lradius 39.3717
lwrist 1.40538
lhand 22.0077 -0.158969
lfingers 7.12502
lthumb 46.4006 22.7669
rfemur -11.273 -8.40178 25.6526
rtibia 32.5409
rfoot -22.2275 -1.62039
rtoes 5.92514
lfemur -7.06055 3.10849 -15.5952
ltibia 27.1832
lfoot -22.3012 7.25942
ltoes -1.48342
1116
root -7.04959 16.8847 40.4483 4.59852 -22.5003 -5.09358
lowerback -3.68329 0.464674 4.45259
upperback 0.0489927 0.437071 -0.484002
thorax 2.15458 0.268152 -2.97345
lowerneck -11.2768 -4.0369 -3.07892
upperneck 8.73846 -6.1063 9.88287
head 4.88456 -2.50594 3.10179
rclavicle 6.20954e-014 -1.35174e-014
rhumerus -41.1139 49.7634 -89.857
rradius 54.2486
rwrist 2.39397
rhand 22.7582 -9.18753
rfingers 7.12502
rthumb 47.0954 -31.8116
lclavicle 6.20954e-014 -1.35174e-014
lhumerus -212.945 -137.701 259.313
lradius 36.9844
lwrist 1.05321
lhand 20.3197 -0.398467
lfingers 7.12502
lthumb 44.8328 23.1667
rfemur -11.3449 -8.35357 25.647
rtibia 32.5465
rfoot -22.2244 -1.73989
rtoes 5.86964
lfemur -7.13956 3.08743 -15.6236
ltibia 27.1719
lfoot -22.2684 7.22443
ltoes -1.50655
1117
root -7.04543 16.8863 40.4488 4.65492 -22.4265 -5.09269
lowerback -3.61231 0.411265 4.43753
upperback 0.120891 0.367814 -0.450322
thorax 2.18266 0.235186 -2.93415
lowerneck -11.4175 -4.08441 -3.10906
upperneck 8.99135 -6.18406 9.8561
head 4.99121 -2.53526 3.08936
rclavicle 9.81499e-016 -4.77083e-015
rhumerus -41.3867 48.6024 -91.2258
rradius 52.5674
rwrist 2.97742
rhand 21.7752 -9.20013
rfingers 7.12502
rthumb 46.1851 -32.2172
lclavicle 9.81499e-016 -4.77083e-015
lhumerus -212.988 -139.925 260.191
lradius 34.6999
lwrist 0.784929
lhand 18.5574 -0.625459
lfingers 7.12502
lthumb 43.1889 23.5534
rfemur -11.4106 -8.29919 25.6573
rtibia 32.5413
rfoot -22.2172 -1.86193
rtoes 5.81753
lfemur -7.22489 3.05864 -15.6365
ltibia 27.1741
lfoot -22.2426 7.19617
ltoes -1.52643
1118
root -7.0414 16.8879 40.4493 4.71585 -22.3565 -5.10414
lowerback -3.5447 0.34993 4.44034
upperback 0.192878 0.287048 -0.418166
thorax 2.21201 0.19669 -2.90704
lowerneck -11.5662 -4.12728 -3.11938
upperneck 9.269 -6.25806 9.8078
head 5.10544 -2.56252 3.067
rclavicle 6.16232e-015 1.35174e-014
rhumerus -41.495 47.4155 -92.365
rradius 50.9657
rwrist 3.04335
rhand 20.7905 -9.34719
rfingers 7.12502
rthumb 45.2708 -32.7393
lclavicle 6.16232e-015 1.35174e-014
lhumerus -212.933 -142.373 260.814
lradius 32.5334
lwrist 0.571227
lhand 16.7439 -0.846271
lfingers 7.12502
lthumb 41.4905 23.9122
rfemur -11.4718 -8.22992 25.6812
rtibia 32.5269
rfoot -22.2038 -1.99394
rtoes 5.76277
lfemur -7.31549 3.02595 -15.6378
ltibia 27.1878
lfoot -22.223 7.1765
ltoes -1.54492
1119
root -7.03742 16.8896 40.45 4.78166 -22.2948 -5.13298
lowerback -3.47605 0.285242 4.46353
upperback 0.264843 0.200928 -0.384173
thorax 2.24047 0.155719 -2.88971
lowerneck -11.7178 -4.16733 -3.12114
upperneck 9.56164 -6.32916 9.7469
head 5.22407 -2.58842 3.03936
rclavicle -8.94531e-016 -4.37326e-015
rhumerus -41.4559 46.1674 -93.2819
rradius 49.4494
rwrist 2.69917
rhand 19.8427 -9.61901
rfingers 7.12502
rthumb 44.3885 -33.3555
lclavicle -8.94531e-016 -4.37326e-015
lhumerus -212.804 -145.022 261.21
lradius 30.4954
lwrist 0.35425
lhand 14.9124 -1.07574
lfingers 7.12502
lthumb 39.7692 24.2195
rfemur -11.5278 -8.14393 25.7229
rtibia 32.5062
rfoot -22.1881 -2.13278
rtoes 5.71144
lfemur -7.40689 2.98942 -15.6229
ltibia 27.2088
lfoot -22.2065 7.17005
ltoes -1.55584
1120
root -7.03338 16.8914 40.4507 4.84912 -22.2472 -5.16933
lowerback -3.40848 0.222764 4.49655
upperback 0.336276 0.11727 -0.349577
thorax 2.26926 0.116091 -2.87705
lowerneck -11.8721 -4.20931 -3.11906
upperneck 9.86838 -6.40341 9.67721
head 5.34752 -2.6159 3.00786
rclavicle 4.38817e-014 7.95139e-016
rhumerus -41.2857 44.8214 -93.9849
rradius 48.0142
rwrist 2.0679
rhand 18.9239 -9.98798
rfingers 7.12502
rthumb 43.5313 -34.0435
lclavicle 4.38817e-014 7.95139e-016
lhumerus -212.637 -147.816 261.419
lradius 28.5998
lwrist 0.107379
lhand 13.0994 -1.31338
lfingers 7.12502
lthumb 38.0597 24.4696
rfemur -11.581 -8.04354 25.7712
rtibia 32.4832
rfoot -22.1691 -2.27393
rtoes 5.65702
lfemur -7.49529 2.94855 -15.6036
ltibia 27.2323
lfoot -22.194 7.18297
ltoes -1.56809
1121
root -7.02924 16.8933 40.4517 4.91664 -22.2179 -5.20187
lowerback -3.34363 0.16481 4.52414
upperback 0.40512 0.0397738 -0.314734
thorax 2.29742 0.0794123 -2.86068
lowerneck -12.021 -4.25267 -3.12343
upperneck 10.1825 -6.47903 9.60846
head 5.4729 -2.6443 2.9775
rclavicle -3.37934e-015 1.03368e-014
rhumerus -40.9957 43.3256 -94.4707
rradius 46.6632
rwrist 1.29082
rhand 18.0372 -10.4165
rfingers 7.12502
rthumb 42.7024 -34.7667
lclavicle -3.37934e-015 1.03368e-014
lhumerus -212.461 -150.714 261.475
lradius 26.8567
lwrist -0.196459
lhand 11.3493 -1.55174
lfingers 7.12502
lthumb 36.405 24.6642
rfemur -11.6361 -7.92885 25.8144
rtibia 32.4623
rfoot -22.1504 -2.41501
rtoes 5.59227
lfemur -7.57954 2.90674 -15.5928
ltibia 27.2526
lfoot -22.1825 7.21877
ltoes -1.5855
